<?xml version="1.0" encoding="utf-8"?>

<!DOCTYPE svg PUBLIC "-//W3C//DTD SVG 1.1//EN" "http://www.w3.org/Graphics/SVG/1.1/DTD/svg11.dtd">
<!-- Uploaded to: SVG Repo, www.svgrepo.com, Generator: SVG Repo Mixer Tools -->
<svg version="1.1" id="_x32_" xmlns="http://www.w3.org/2000/svg" xmlns:xlink="http://www.w3.org/1999/xlink" 
	 viewBox="0 0 512 512"  xml:space="preserve">
<style type="text/css">
	.st0{fill:#000000;}
</style>
<g>
	<path class="st0" d="M511.992,270.42H330.247c-1.409-39.835-34.061-71.726-74.239-71.726c-40.186,0-72.831,31.89-74.247,71.726
		L0.008,270.412L0,296.979h512L511.992,270.42z"/>
	<rect x="245.105" y="71.593" class="st0" width="21.79" height="77.57"/>
	
		<rect x="135.868" y="121.285" transform="matrix(0.4999 0.8661 -0.8661 0.4999 201.8175 -85.1629)" class="st0" width="77.569" height="21.779"/>
	<polygon class="st0" points="154.128,201.683 86.954,162.906 76.068,181.769 143.249,220.546 	"/>
	<polygon class="st0" points="368.751,220.554 435.924,181.769 425.038,162.914 357.864,201.691 	"/>
	<polygon class="st0" points="366.16,104.036 347.304,93.157 308.52,160.322 327.383,171.217 	"/>
	<polygon class="st0" points="86.853,363.382 86.846,379.319 136.253,379.319 136.245,363.382 	"/>
	<polygon class="st0" points="231.3,363.382 231.292,379.319 280.7,379.319 280.692,363.382 	"/>
	<polygon class="st0" points="375.747,363.382 375.74,379.319 425.147,379.319 425.139,363.382 	"/>
	<polygon class="st0" points="159.077,424.469 159.069,440.407 208.476,440.407 208.469,424.469 	"/>
	<polygon class="st0" points="303.524,424.469 303.516,440.407 352.923,440.407 352.915,424.469 	"/>
</g>
</svg>