<svg version="1.1" id="Layer_1" xmlns="http://www.w3.org/2000/svg" xmlns:xlink="http://www.w3.org/1999/xlink" x="0px" y="0px"
	 width="100%" viewBox="0 0 992 1024" enable-background="new 0 0 992 1024" xml:space="preserve">
<!-- Stroke drawn under fill (`paint-order`) for a heavier silhouette without closing inner gaps. -->
<path fill="#000000" opacity="1" stroke="#000000" stroke-width="48" stroke-linejoin="round" stroke-linecap="round" paint-order="stroke fill"
	d="
M184.608215,766.567566 
	C202.698151,754.320129 220.488510,742.268921 238.327652,730.290344 
	C241.911972,727.883606 245.509613,725.151062 249.861771,724.542297 
	C255.804214,723.711060 260.277985,726.719360 264.376434,730.838074 
	C270.667206,737.160095 271.208466,737.174927 277.508240,730.772217 
	C293.397583,714.623108 309.057312,698.248169 324.936646,682.089050 
	C355.997742,650.480652 386.600006,618.430908 416.969025,586.162415 
	C447.909698,553.286438 480.265228,521.740051 509.900085,487.640167 
	C529.021179,465.638123 548.004822,443.482788 564.729492,419.574585 
	C579.298645,398.747589 590.335571,375.925598 599.875916,352.441467 
	C614.488281,316.472198 629.229736,280.570923 650.080688,247.629562 
	C661.723328,229.235962 675.037659,212.099503 693.406799,199.838226 
	C720.716309,181.609360 749.029602,178.999054 778.762024,194.507935 
	C810.078003,210.842728 826.876892,251.859253 815.659119,287.620941 
	C808.740356,309.677551 795.658630,327.223724 778.773621,342.390167 
	C751.214050,367.144714 719.114197,384.716705 686.188660,400.997040 
	C665.729492,411.113281 645.428284,421.517975 626.260986,433.991180 
	C610.252441,444.408752 596.078308,456.936462 582.936584,470.752258 
	C568.107300,486.342041 551.260498,499.808289 535.865234,514.796448 
	C510.085236,539.894714 484.656555,565.353394 458.991180,590.569885 
	C438.436432,610.765198 417.696075,630.771545 397.134216,650.959656 
	C366.591095,680.947632 336.129852,711.019043 305.642273,741.063599 
	C301.845306,744.805298 298.139038,748.639465 294.317902,752.356018 
	C291.457184,755.138367 291.596924,757.838684 294.240631,760.611145 
	C295.160370,761.575684 296.079193,762.543030 297.038330,763.467773 
	C305.060120,771.200989 305.299194,776.998596 299.385254,787.092590 
	C295.428711,793.845642 291.193115,800.436279 287.034302,807.069397 
	C274.202728,827.535400 261.384827,848.010193 248.485809,868.433716 
	C242.635620,877.696533 232.788605,878.793579 224.863388,871.218933 
	C223.057022,869.492432 221.058945,867.916565 219.504745,865.985168 
	C213.760925,858.846924 207.082596,855.565857 197.277969,855.959106 
	C184.690002,856.463867 173.398865,841.583496 175.306244,828.826538 
	C175.946640,824.543457 175.051895,821.647827 171.732101,818.782776 
	C167.333801,814.987000 163.441528,810.594849 159.419250,806.375610 
	C152.134583,798.734253 152.549347,789.628357 161.010910,783.117493 
	C168.522903,777.337341 176.534668,772.206665 184.608215,766.567566 
M773.769165,219.732819 
	C764.871826,212.239029 754.359192,208.897629 742.974243,208.233978 
	C722.502502,207.040680 706.840088,217.086014 693.134216,230.727402 
	C676.790283,246.994507 665.364563,266.758453 654.652405,286.954376 
	C643.561157,307.865051 635.002686,329.900299 625.769043,351.639984 
	C613.590454,380.313263 601.146667,408.863037 583.239563,434.606628 
	C582.851990,435.163757 582.683838,435.824615 583.620178,436.573181 
	C585.347107,436.278229 586.514221,434.778839 587.896240,433.681915 
	C593.372559,429.335144 598.619202,424.667633 604.319153,420.640076 
	C621.493958,408.504456 639.775208,398.244141 658.657654,388.992310 
	C687.835571,374.696075 716.816895,359.998383 743.269043,340.922119 
	C761.497803,327.776276 778.114380,313.040070 788.484253,292.491608 
	C799.608704,270.447845 798.008301,238.253296 773.769165,219.732819 
z"/>
</svg>